  0
SECTION
  2
HEADER
  9
$ACADVER
  1
AC1018
  9
$ACADMAINTVER
 70
     0
  9
$DWGCODEPAGE
  3
ANSI_1252
  9
$EXTMIN
 10
584951.487505735
 20
818902.49813098
 30
0.0
  9
$EXTMAX
 10
587111.913151874
 20
820460.69684798
 30
0.0
  9
$LIMMIN
 10
0.0
 20
0.0
  9
$LIMMAX
 10
12.0
 20
9.0
  9
$ORTHOMODE
 70
     0
  9
$REGENMODE
 70
     1
  9
$FILLMODE
 70
     1
  9
$QTEXTMODE
 70
     0
  9
$MIRRTEXT
 70
     1
  9
$LTSCALE
 40
1.0
  9
$ATTMODE
 70
     1
  9
$TEXTSIZE
 40
0.2
  9
$TRACEWID
 40
0.05
  9
$TEXTSTYLE
  7
Standard
  9
$CLAYER
  8
0
  9
$CELTYPE
  6
ByLayer
  9
$CECOLOR
 62
   256
  9
$CELTSCALE
 40
1.0
  9
$DISPSILH
 70
     0
  9
$LUNITS
 70
     2
  9
$LUPREC
 70
     4
  9
$SKETCHINC
 40
0.1
  9
$FILLETRAD
 40
0.5
  9
$AUNITS
 70
     0
  9
$AUPREC
 70
     0
  9
$MENU
  1
.
  9
$ELEVATION
 40
0.0
  9
$PELEVATION
 40
0.0
  9
$THICKNESS
 40
0.0
  9
$LIMCHECK
 70
     0
  9
$CHAMFERA
 40
0.5
  9
$CHAMFERB
 40
0.5
  9
$CHAMFERC
 40
1.0
  9
$CHAMFERD
 40
0.0
  9
$SKPOLY
 70
     0
  9
$ANGBASE
 50
0.0
  9
$ANGDIR
 70
     0
  9
$PDMODE
 70
     0
  9
$PDSIZE
 40
0.0
  9
$PLINEWID
 40
0.0
  9
$SPLFRAME
 70
     0
  9
$SPLINETYPE
 70
     6
  9
$SPLINESEGS
 70
     8
  9
$HANDSEED
  5
0002001C
  9
$SURFTAB1
 70
     6
  9
$SURFTAB2
 70
     6
  9
$SURFTYPE
 70
     6
  9
$SURFU
 70
     6
  9
$SURFV
 70
     6
  9
$UCSBASE
  2

  9
$UCSNAME
  2

  9
$UCSORG
 10
0.0
 20
0.0
 30
0.0
  9
$UCSXDIR
 10
1.0
 20
0.0
 30
0.0
  9
$UCSYDIR
 10
0.0
 20
1.0
 30
0.0
  9
$UCSORTHOREF
  2

  9
$UCSORTHOVIEW
 70
     0
  9
$UCSORGTOP
 10
0.0
 20
0.0
 30
0.0
  9
$UCSORGBOTTOM
 10
0.0
 20
0.0
 30
0.0
  9
$UCSORGLEFT
 10
0.0
 20
0.0
 30
0.0
  9
$UCSORGRIGHT
 10
0.0
 20
0.0
 30
0.0
  9
$UCSORGFRONT
 10
0.0
 20
0.0
 30
0.0
  9
$UCSORGBACK
 10
0.0
 20
0.0
 30
0.0
  9
$PUCSBASE
  2

  9
$PUCSNAME
  2

  9
$PUCSORG
 10
0.0
 20
0.0
 30
0.0
  9
$PUCSXDIR
 10
1.0
 20
0.0
 30
0.0
  9
$PUCSYDIR
 10
0.0
 20
1.0
 30
0.0
  9
$PUCSORTHOREF
  2

  9
$PUCSORTHOVIEW
 70
     0
  9
$PUCSORGTOP
 10
0.0
 20
0.0
 30
0.0
  9
$PUCSORGBOTTOM
 10
0.0
 20
0.0
 30
0.0
  9
$PUCSORGLEFT
 10
0.0
 20
0.0
 30
0.0
  9
$PUCSORGRIGHT
 10
0.0
 20
0.0
 30
0.0
  9
$PUCSORGFRONT
 10
0.0
 20
0.0
 30
0.0
  9
$PUCSORGBACK
 10
0.0
 20
0.0
 30
0.0
  9
$WORLDVIEW
 70
     1
  9
$SHADEDGE
 70
     3
  9
$SHADEDIF
 70
    70
  9
$TILEMODE
 70
     1
  9
$MAXACTVP
 70
    64
  9
$PINSBASE
 10
0.0
 20
0.0
 30
0.0
  9
$PLIMCHECK
 70
     0
  9
$PEXTMIN
 10
1.000000000000000E+20
 20
1.000000000000000E+20
 30
1.000000000000000E+20
  9
$PEXTMAX
 10
-1.000000000000000E+20
 20
-1.000000000000000E+20
 30
-1.000000000000000E+20
  9
$PLIMMIN
 10
0.0
 20
0.0
  9
$PLIMMAX
 10
12.0
 20
9.0
  9
$UNITMODE
 70
     0
  9
$VISRETAIN
 70
     1
  9
$PLINEGEN
 70
     0
  9
$PSLTSCALE
 70
     1
  9
$TREEDEPTH
 70
  3020
  9
$CMLSTYLE
  2
Standard
  9
$CMLJUST
 70
     0
  9
$CMLSCALE
 40
1.0
  9
$PROXYGRAPHICS
 70
     1
  9
$MEASUREMENT
 70
     0
  9
$CELWEIGHT
370
    -1
  9
$ENDCAPS
280
     0
  9
$JOINSTYLE
280
     0
  9
$LWDISPLAY
290
     0
  9
$INSUNITS
 70
6
  9
$HYPERLINKBASE
  1

  9
$STYLESHEET
  1

  9
$XEDIT
290
     1
  9
$CEPSNTYPE
380
     0
  9
$PSTYLEMODE
290
     1
  9
$EXTNAMES
290
     1
  9
$PSVPSCALE
 40
0.0
  9
$OLESTARTUP
290
     0
  9
$SORTENTS
280
   127
  9
$INDEXCTL
280
     0
  9
$HIDETEXT
280
     1
  9
$XCLIPFRAME
290
     0
  9
$HALOGAP
280
     0
  9
$OBSCOLOR
 70
   257
  9
$OBSLTYPE
280
     0
  9
$INTERSECTIONDISPLAY
280
     0
  9
$INTERSECTIONCOLOR
 70
   257
  9
$DIMASSOC
280
     2
  9
$PROJECTNAME
  1

  0
ENDSEC
  0
SECTION
  2
CLASSES
  0
CLASS
  1
ACDBDICTIONARYWDFLT
  2
AcDbDictionaryWithDefault
  3
ObjectDBX Classes
 90
        0
 91
        4
280
     0
281
     0
  0
ENDSEC
  0
SECTION
  2
TABLES
  0
TABLE
  2
VPORT
  5
8
330
0
100
AcDbSymbolTable
 70
     1
  0
VPORT
  5
29
330
8
100
AcDbSymbolTableRecord
100
AcDbViewportTableRecord
  2
*Active
 70
     0
 10
0.0
 20
0.0
 11
1.0
 21
1.0
 12
80.25
 22
106.4409457059851
 13
0.0
 23
0.0
 14
0.5
 24
0.5
 15
0.5
 25
0.5
 16
0.0
 26
0.0
 36
1.0
 17
0.0
 27
0.0
 37
0.0
 40
113.3818914119703
 41
0.8863849310366128
 42
50.0
 43
0.0
 44
0.0
 50
0.0
 51
0.0
 71
     0
 72
  1000
 73
     1
 74
     3
 75
     0
 76
     0
 77
     0
 78
     0
281
     0
 65
     1
110
0.0
120
0.0
130
0.0
111
1.0
121
0.0
131
0.0
112
0.0
122
1.0
132
0.0
 79
     0
146
0.0
  0
ENDTAB
  0
TABLE
  2
LTYPE
  5
5
330
0
100
AcDbSymbolTable
 70
     1
  0
LTYPE
  5
14
330
5
100
AcDbSymbolTableRecord
100
AcDbLinetypeTableRecord
  2
ByBlock
 70
     0
  3

 72
    65
 73
     0
 40
0.0
  0
LTYPE
  5
15
330
5
100
AcDbSymbolTableRecord
100
AcDbLinetypeTableRecord
  2
ByLayer
 70
     0
  3

 72
    65
 73
     0
 40
0.0
  0
LTYPE
  5
16
330
5
100
AcDbSymbolTableRecord
100
AcDbLinetypeTableRecord
  2
Continuous
 70
     0
  3
Solid line
 72
    65
 73
     0
 40
0.0
  0
ENDTAB
  0
TABLE
  2
LAYER
  5
2
330
0
100
AcDbSymbolTable
 70
     1
  0
LAYER
  5
10
330
2
100
AcDbSymbolTableRecord
100
AcDbLayerTableRecord
  2
0
 70
     0
 62
     7
  6
Continuous
370
    -3
390
F
  0
ENDTAB
  0
TABLE
  2
STYLE
  5
3
330
0
100
AcDbSymbolTable
 70
     1
  0
STYLE
  5
11
330
3
100
AcDbSymbolTableRecord
100
AcDbTextStyleTableRecord
  2
Standard
 70
     0
 40
0.0
 41
1.0
 50
0.0
 71
     0
 42
0.2
  3
txt
  4

  0
ENDTAB
  0
TABLE
  2
VIEW
  5
6
330
0
100
AcDbSymbolTable
 70
     0
  0
ENDTAB
  0
TABLE
  2
UCS
  5
7
330
0
100
AcDbSymbolTable
 70
     0
  0
ENDTAB
  0
TABLE
  2
APPID
  5
9
330
0
100
AcDbSymbolTable
 70
     1
  0
APPID
  5
12
330
9
100
AcDbSymbolTableRecord
100
AcDbRegAppTableRecord
  2
ACAD
 70
     0
  0
ENDTAB
  0
TABLE
  2
DIMSTYLE
  5
A
330
0
100
AcDbSymbolTable
 70
     1
100
AcDbDimStyleTable
  0
DIMSTYLE
105
27
330
A
100
AcDbSymbolTableRecord
100
AcDbDimStyleTableRecord
  2
Standard
 70
     0
340
11
  0
ENDTAB
  0
TABLE
  2
BLOCK_RECORD
  5
1
330
0
100
AcDbSymbolTable
 70
     1
  0
BLOCK_RECORD
  5
1F
330
1
100
AcDbSymbolTableRecord
100
AcDbBlockTableRecord
  2
*Model_Space
340
22
  0
BLOCK_RECORD
  5
1B
330
1
100
AcDbSymbolTableRecord
100
AcDbBlockTableRecord
  2
*Paper_Space
340
1E
  0
ENDTAB
  0
ENDSEC
  0
SECTION
  2
BLOCKS
  0
BLOCK
  5
20
330
1F
100
AcDbEntity
  8
0
100
AcDbBlockBegin
  2
*Model_Space
 70
     0
 10
0.0
 20
0.0
 30
0.0
  3
*Model_Space
  1

  0
ENDBLK
  5
21
330
1F
100
AcDbEntity
  8
0
100
AcDbBlockEnd
  0
BLOCK
  5
1C
330
1B
100
AcDbEntity
 67
     1
  8
0
100
AcDbBlockBegin
  2
*Paper_Space
 70
     0
 10
0.0
 20
0.0
 30
0.0
  3
*Paper_Space
  1

  0
ENDBLK
  5
1D
330
1B
100
AcDbEntity
 67
     1
  8
0
100
AcDbBlockEnd
  0
ENDSEC
  0
SECTION
  2
ENTITIES
  0
LWPOLYLINE
  5
20000
100
AcDbEntity
  8
0
100
AcDbPolyline
 70
0
 90
100
 10
586879.466030696
 20
820204.355934155
 10
586868.148190824
 20
820197.373334773
 10
586856.81981653
 20
820190.415597299
 10
586835.457759215
 20
820177.264849951
 10
586825.422004647
 20
820171.073277997
 10
586808.063821768
 20
820160.2812988
 10
586800.73182859
 20
820155.695863765
 10
586786.098133736
 20
820146.470637536
 10
586778.794224171
 20
820141.833116513
 10
586756.905692453
 20
820127.873668573
 10
586742.344276001
 20
820118.504846297
 10
586718.32389031
 20
820103.081100593
 10
586708.871181274
 20
820097.019315985
 10
586692.167648588
 20
820086.370421877
 10
586684.921660018
 20
820081.774037694
 10
586670.411981281
 20
820072.623354761
 10
586663.149161538
 20
820068.065873293
 10
586641.346313519
 20
820054.412797475
 10
586626.791912473
 20
820045.336563314
 10
586608.920166004
 20
820034.10669264
 10
586605.596588369
 20
820032.018739195
 10
586598.99624987
 20
820027.81956958
 10
586595.717732443
 20
820025.706001633
 10
586585.998083977
 20
820019.26408389
 10
586579.673301992
 20
820014.83430563
 10
586571.56969707
 20
820008.500057653
 10
586569.539596534
 20
820006.85027186
 10
586565.527687874
 20
820003.467272192
 10
586563.547222677
 20
820001.737111212
 10
586557.667895133
 20
819996.449059953
 10
586553.831149087
 20
819992.793523438
 10
586545.638324146
 20
819984.724208249
 10
586541.297600805
 20
819980.28279324
 10
586533.8211501
 20
819972.590237564
 10
586530.688867593
 20
819969.351876962
 10
586524.354220113
 20
819962.905524737
 10
586521.151430559
 20
819959.699191394
 10
586515.849834319
 20
819954.598504539
 10
586513.793820818
 20
819952.668918131
 10
586509.618013008
 20
819948.876625824
 10
586507.502899327
 20
819947.01520189
 10
586501.089807106
 20
819941.521229464
 10
586496.724120711
 20
819937.978954131
 10
586488.036069411
 20
819931.179841162
 10
586483.717309275
 20
819927.917373581
 10
586475.839592402
 20
819922.07333021
 10
586472.290215422
 20
819919.476391487
 10
586465.178472419
 20
819914.30647039
 10
586461.614848284
 20
819911.73639791
 10
586450.903881241
 20
819904.064689519
 10
586443.736445871
 20
819899.00156137
 10
586428.321031525
 20
819888.214823471
 10
586420.0673249
 20
819882.502101386
 10
586403.96916269
 20
819871.416823108
 10
586396.128020323
 20
819866.036613826
 10
586380.408308555
 20
819855.309602872
 10
586372.530338112
 20
819849.965953909
 10
586356.786003488
 20
819839.389592791
 10
586348.918234465
 20
819834.15640342
 10
586333.12461612
 20
819823.784910055
 10
586325.202637398
 20
819818.643844721
 10
586304.820510915
 20
819805.51399305
 10
586292.338972137
 20
819797.566633002
 10
586254.907361362
 20
819773.74616447
 10
586229.961986297
 20
819757.864796893
 10
586180.134142214
 20
819726.006676184
 10
586155.256955956
 20
819710.025247266
 10
586116.445475244
 20
819684.967732033
 10
586102.487185068
 20
819675.931717657
 10
586074.261386719
 20
819657.612834902
 10
586059.990669247
 20
819648.335335125
 10
586031.516763053
 20
819629.698867953
 10
586017.313964769
 20
819620.336918608
 10
585993.585494833
 20
819604.487311876
 10
585984.026291089
 20
819598.044747929
 10
585958.510039376
 20
819580.644518307
 10
585942.615102171
 20
819569.574372745
 10
585917.21512629
 20
819551.887011173
 10
585907.720716345
 20
819545.276488671
 10
585893.127910413
 20
819535.194927552
 10
585888.050170182
 20
819531.701448765
 10
585872.78171267
 20
819521.263048941
 10
585862.575913818
 20
819514.380111756
 10
585847.402892329
 20
819503.923138594
 10
585842.365335297
 20
819500.413610124
 10
585834.067188431
 20
819494.51878861
 10
585830.785325708
 20
819492.157384402
 10
585821.001262644
 20
819485.00034429
 10
585814.534758449
 20
819480.113019008
 10
585803.730223408
 20
819471.925199661
 10
585799.39819013
 20
819468.636539769
 10
585790.88914671
 20
819462.25150258
 10
585786.714448313
 20
819459.153367733
 10
585779.643270552
 20
819454.027208717
 10
585776.768745873
 20
819451.976297435
 10
585768.072615881
 20
819445.90537542
 10
585762.20337572
 20
819441.988206621
 10
585754.634215326
 20
819437.024864079
 10
585752.948787034
 20
819435.925275485
 10
585751.263190579
 20
819434.828663816
  0
LWPOLYLINE
  5
20001
100
AcDbEntity
  8
0
100
AcDbPolyline
 70
0
 90
67
 10
585104.874705328
 20
818985.201903559
 10
585104.953406248
 20
818985.088018691
 10
585105.135636973
 20
818984.833857095
 10
585105.322266027
 20
818984.582865022
 10
585105.513237568
 20
818984.33511758
 10
585105.708494444
 20
818984.090688898
 10
585105.907978225
 20
818983.849652118
 10
585106.111629234
 20
818983.612079367
 10
585106.319386537
 20
818983.378041731
 10
585106.531187944
 20
818983.147609243
 10
585106.746970088
 20
818982.920850853
 10
585106.966668412
 20
818982.697834416
 10
585107.190217165
 20
818982.478626663
 10
585107.417549444
 20
818982.263293188
 10
585107.648597253
 20
818982.051898426
 10
585107.883291438
 20
818981.844505633
 10
585108.121561769
 20
818981.641176864
 10
585108.363336946
 20
818981.441972962
 10
585108.608544643
 20
818981.246953538
 10
585108.857111467
 20
818981.056176943
 10
585109.108963056
 20
818980.869700266
 10
585109.364024037
 20
818980.687579305
 10
585109.622218078
 20
818980.509868556
 10
585109.883467948
 20
818980.336621195
 10
585110.147695451
 20
818980.167889063
 10
585110.41482153
 20
818980.00372265
 10
585110.684766263
 20
818979.84417108
 10
585110.957448853
 20
818979.689282094
 10
585111.232787722
 20
818979.53910204
 10
585111.510700467
 20
818979.393675857
 10
585111.791103951
 20
818979.253047059
 10
585112.073914248
 20
818979.117257727
 10
585112.359046739
 20
818978.986348494
 10
585112.646416112
 20
818978.860358533
 10
585112.935936362
 20
818978.739325539
 10
585113.22752087
 20
818978.623285736
 10
585113.521082379
 20
818978.51227384
 10
585113.816533047
 20
818978.406323072
 10
585114.113784476
 20
818978.305465135
 10
585114.412747705
 20
818978.209730209
 10
585114.713333289
 20
818978.11914694
 10
585115.015451271
 20
818978.033742435
 10
585115.319011263
 20
818977.953542247
 10
585115.623922418
 20
818977.878570376
 10
585115.930093503
 20
818977.808849255
 10
585116.237432894
 20
818977.744399747
 10
585116.545848649
 20
818977.685241138
 10
585116.855248458
 20
818977.631391128
 10
585118.098777459
 20
818977.287021278
 10
585119.348156006
 20
818976.964219814
 10
585120.603005052
 20
818976.663084666
 10
585121.862943911
 20
818976.38370719
 10
585123.127590345
 20
818976.126172147
 10
585124.396560699
 20
818975.890557664
 10
585125.669469981
 20
818975.676935225
 10
585126.945932019
 20
818975.485369637
 10
585128.225559581
 20
818975.315919017
 10
585129.507964443
 20
818975.168634771
 10
585130.792757556
 20
818975.043561587
 10
585132.079549149
 20
818974.940737406
 10
585133.367948837
 20
818974.860193423
 10
585137.823557551
 20
818974.280904764
 10
585142.288360772
 20
818973.77627736
 10
585146.761090861
 20
818973.346454485
 10
585151.240477964
 20
818972.991558178
 10
585155.72525032
 20
818972.711689202
 10
585160.21413462
 20
818972.506927019
  0
LWPOLYLINE
  5
20002
100
AcDbEntity
  8
0
100
AcDbPolyline
 70
0
 90
22
 10
585104.874705328
 20
818985.201903559
 10
585101.633234712
 20
818982.827451234
 10
585098.378539421
 20
818980.464937871
 10
585089.833618868
 20
818974.354783521
 10
585084.512482986
 20
818970.641063487
 10
585075.060344539
 20
818964.303558794
 10
585070.959585084
 20
818961.638588124
 10
585062.667038343
 20
818956.450322824
 10
585058.477358658
 20
818953.924511925
 10
585049.719343411
 20
818948.83625587
 10
585045.142499707
 20
818946.283909343
 10
585035.922006463
 20
818941.338794122
 10
585031.281438427
 20
818938.942936441
 10
585021.714293556
 20
818934.119929116
 10
585016.787711224
 20
818931.698670833
 10
585006.929046826
 20
818926.8984842
 10
585001.991399375
 20
818924.520094766
 10
584987.161261765
 20
818917.433464058
 10
584977.251581385
 20
818912.77375056
 10
584963.320031643
 20
818906.253401169
 10
584959.300102196
 20
818904.375535745
 10
584955.281159825
 20
818902.49813098
  0
LWPOLYLINE
  5
20003
100
AcDbEntity
  8
0
100
AcDbPolyline
 70
0
 90
20
 10
585357.478023196
 20
819149.943458415
 10
585353.707867351
 20
819147.831242055
 10
585349.937934883
 20
819145.721592905
 10
585338.986347101
 20
819139.585058185
 10
585331.808597021
 20
819135.556490058
 10
585310.321865111
 20
819123.411664759
 10
585296.059430555
 20
819115.236247953
 10
585274.753827187
 20
819102.587816005
 10
585267.607593104
 20
819098.269301105
 10
585253.403253099
 20
819089.489903876
 10
585246.342073529
 20
819085.030387995
 10
585225.277436908
 20
819071.459413385
 10
585211.392882924
 20
819062.155522849
 10
585185.405272741
 20
819044.154906569
 10
585173.27175445
 20
819035.496726791
 10
585149.129546995
 20
819017.967990891
 10
585137.121239379
 20
819009.098075159
 10
585120.671215898
 20
818996.887538696
 10
585116.222454524
 20
818993.574549829
 10
585111.756116127
 20
818990.270332895
  0
LWPOLYLINE
  5
20004
100
AcDbEntity
  8
0
100
AcDbPolyline
 70
0
 90
12
 10
585473.033261662
 20
819221.906720562
 10
585469.672404028
 20
819219.404516108
 10
585466.282268275
 20
819216.944843052
 10
585455.22724907
 20
819209.100970893
 10
585447.467850797
 20
819203.866260961
 10
585431.814900196
 20
819193.647821735
 10
585423.913025807
 20
819188.664940683
 10
585408.006566527
 20
819178.926097286
 10
585400.000074422
 20
819174.17018054
 10
585384.202109236
 20
819165.005394075
 10
585376.416503217
 20
819160.586483499
 10
585368.622349964
 20
819156.199141798
  0
LWPOLYLINE
  5
20005
100
AcDbEntity
  8
0
100
AcDbPolyline
 70
0
 90
76
 10
585731.564033519
 20
819432.722605337
 10
585728.333306705
 20
819430.614133407
 10
585725.105481985
 20
819428.491839519
 10
585718.111006769
 20
819423.819874591
 10
585714.34833425
 20
819421.259999717
 10
585706.884935498
 20
819416.029701298
 10
585703.193444243
 20
819413.366690047
 10
585692.212997872
 20
819405.271263567
 10
585685.018014617
 20
819399.732537791
 10
585672.72080159
 20
819390.11810922
 10
585667.592368049
 20
819386.063295556
 10
585658.195646517
 20
819378.655439654
 10
585653.926646344
 20
819375.298204404
 10
585644.784266405
 20
819368.195954304
 10
585639.897761526
 20
819364.459008468
 10
585630.078205626
 20
819357.024636702
 10
585625.147651408
 20
819353.328287102
 10
585610.327545802
 20
819342.255756837
 10
585600.409499134
 20
819334.896163194
 10
585582.304818167
 20
819321.20352403
 10
585574.112955562
 20
819314.906747966
 10
585557.826519202
 20
819302.188874372
 10
585549.731464453
 20
819295.767468939
 10
585536.667603729
 20
819285.245152671
 10
585531.669723916
 20
819281.181219441
 10
585522.180850138
 20
819273.393262544
 10
585517.685269725
 20
819269.671478273
 10
585508.729843698
 20
819262.199368715
 10
585504.271428961
 20
819258.455512679
 10
585490.881088691
 20
819247.294248514
 10
585481.9338617
 20
819239.947514643
 10
585468.758991341
 20
819229.86883633
 10
585464.695263515
 20
819226.861613909
 10
585456.474184377
 20
819220.950966032
 10
585452.319314717
 20
819218.048607084
 10
585442.474454094
 20
819211.331423109
 10
585436.755810984
 20
819207.550106561
 10
585425.237983402
 20
819200.112915784
 10
585419.435958277
 20
819196.459151598
 10
585406.44116777
 20
819188.45599426
 10
585399.230072128
 20
819184.135745118
 10
585384.71540731
 20
819175.639215006
 10
585377.4091667
 20
819171.459812058
 10
585362.041501774
 20
819162.765729799
 10
585353.973938672
 20
819158.255231516
 10
585337.835341789
 20
819149.216151093
 10
585329.763203372
 20
819144.691908871
 10
585305.580247287
 20
819131.035857002
 10
585289.502842146
 20
819121.820783285
 10
585265.933193126
 20
819107.739358917
 10
585258.319974321
 20
819103.097761307
 10
585243.194204943
 20
819093.654093058
 10
585235.679298351
 20
819088.855911107
 10
585213.273416907
 20
819074.252944996
 10
585198.521066591
 20
819064.237861558
 10
585169.360605724
 20
819043.770041347
 10
585154.948221391
 20
819033.32587489
 10
585132.563826945
 20
819016.871411764
 10
585124.539255015
 20
819010.925303435
 10
585100.48990055
 20
818993.059914123
 10
585084.558842923
 20
818981.164330072
 10
585062.758184217
 20
818967.02891223
 10
585057.458868311
 20
818963.753008269
 10
585047.970419496
 20
818958.162273217
 10
585043.811321577
 20
818955.801707978
 10
585031.226080723
 20
818948.921209961
 10
585022.666231391
 20
818944.589512613
 10
585009.421591735
 20
818938.072298287
 10
585004.793055685
 20
818935.824622604
 10
584995.524442568
 20
818931.35920269
 10
584990.881344947
 20
818929.141839202
 10
584976.932085052
 20
818922.522067664
 10
584967.605951917
 20
818918.151986351
 10
584956.009861144
 20
818912.731738589
 10
584953.748839669
 20
818911.675527212
 10
584951.487505735
 20
818910.619169913
  0
LWPOLYLINE
  5
20006
100
AcDbEntity
  8
0
100
AcDbPolyline
 70
0
 90
36
 10
585738.939903776
 20
819426.830103594
 10
585738.847960538
 20
819426.770294633
 10
585738.756025708
 20
819426.71048205
 10
585734.112897392
 20
819423.689193733
 10
585729.582782844
 20
819420.718184824
 10
585722.087862027
 20
819415.681218606
 10
585719.098288012
 20
819413.639004844
 10
585710.211882266
 20
819407.423858713
 10
585704.371534708
 20
819403.142717899
 10
585692.784277026
 20
819394.40266162
 10
585687.037829422
 20
819389.944082991
 10
585675.896090252
 20
819381.208675105
 10
585670.499568108
 20
819376.936102671
 10
585660.592849878
 20
819369.138861484
 10
585656.086680764
 20
819365.610472449
 10
585647.021682968
 20
819358.619256959
 10
585642.470289956
 20
819355.156305502
 10
585628.786534081
 20
819344.828698191
 10
585619.624631737
 20
819338.025238891
 10
585605.034319203
 20
819327.12714338
 10
585599.585802215
 20
819323.042991654
 10
585588.739440952
 20
819314.820520977
 10
585583.337303114
 20
819310.681102118
 10
585567.19349421
 20
819298.180005919
 10
585556.514427629
 20
819289.735488803
 10
585540.480255682
 20
819276.797976792
 10
585535.064680625
 20
819272.382994474
 10
585525.988591362
 20
819264.908575285
 10
585522.31847279
 20
819261.864376875
 10
585514.989368444
 20
819255.747523602
 10
585511.32694996
 20
819252.675528834
 10
585500.305681815
 20
819243.470708142
 10
585492.912928079
 20
819237.348889629
 10
585484.534716283
 20
819230.724846719
 10
585483.701719
 20
819230.069686711
 10
585482.866666643
 20
819229.416586194
  0
LWPOLYLINE
  5
20007
100
AcDbEntity
  8
0
100
AcDbPolyline
 70
0
 90
6
 10
586737.652730467
 20
820126.147074373
 10
586729.199178509
 20
820136.530913789
 10
586706.58329744
 20
820165.433300148
 10
586699.97674183
 20
820174.809405233
 10
586695.030729595
 20
820181.533961821
 10
586695.43358727
 20
820181.401351054
  0
LWPOLYLINE
  5
20008
100
AcDbEntity
  8
0
100
AcDbPolyline
 70
0
 90
92
 10
586737.652730467
 20
820126.147074373
 10
586730.537812693
 20
820121.577934612
 10
586723.426621765
 20
820117.007536074
 10
586706.127719216
 20
820105.90923569
 10
586695.938816059
 20
820099.389115633
 10
586672.944729134
 20
820084.790021126
 10
586660.120198321
 20
820076.740592827
 10
586634.418832852
 20
820060.656594841
 10
586621.544404477
 20
820052.621924066
 10
586605.641226324
 20
820042.633047103
 10
586602.617105479
 20
820040.733992204
 10
586596.564107965
 20
820036.901908154
 10
586593.53857532
 20
820034.968921256
 10
586584.504002712
 20
820029.072559538
 10
586578.53673815
 20
820025.011970151
 10
586570.238533235
 20
820018.840643053
 10
586567.774963571
 20
820016.938804355
 10
586562.926779245
 20
820013.02140305
 10
586560.550491082
 20
820011.013265218
 10
586553.541367337
 20
820004.871280267
 10
586549.028198528
 20
820000.620002986
 10
586539.817761773
 20
819991.594034288
 10
586535.137619024
 20
819986.805603984
 10
586527.320532434
 20
819978.76233971
 10
586524.166035143
 20
819975.501071665
 10
586517.838108955
 20
819969.064433568
 10
586514.662358636
 20
819965.88880268
 10
586509.666224028
 20
819961.090929553
 10
586507.880340237
 20
819959.414084715
 10
586504.263300344
 20
819956.115813622
 10
586502.429405975
 20
819954.490360683
 10
586496.860674424
 20
819949.67588281
 10
586493.058758524
 20
819946.548753826
 10
586483.992688998
 20
819939.352697186
 10
586478.676166502
 20
819935.33069228
 10
586470.021931776
 20
819928.923603248
 10
586466.719521292
 20
819926.508146003
 10
586460.104848496
 20
819921.699944174
 10
586456.789706345
 20
819919.308003261
 10
586446.82338143
 20
819912.163681545
 10
586440.151298484
 20
819907.442802731
 10
586424.472703945
 20
819896.451585463
 10
586415.449240636
 20
819890.204284771
 10
586399.102436254
 20
819878.949245415
 10
586391.789281889
 20
819873.930826279
 10
586377.14416623
 20
819863.930831635
 10
586369.809860385
 20
819858.949941369
 10
586354.927799096
 20
819848.93008231
 10
586347.379442819
 20
819843.892844716
 10
586324.969835116
 20
819829.120493739
 10
586310.021660163
 20
819819.497174368
 10
586286.102738592
 20
819804.218361799
 10
586277.159514296
 20
819798.531670998
 10
586259.274038966
 20
819787.14911467
 10
586250.3318867
 20
819781.456379509
 10
586223.510845479
 20
819764.368165903
 10
586205.637371876
 20
819752.962679668
 10
586152.06789551
 20
819718.661080167
 10
586116.431415089
 20
819695.674972576
 10
586065.537332655
 20
819662.632859919
 10
586050.219664266
 20
819652.66962517
 10
586019.65099919
 20
819632.620486264
 10
586004.402250063
 20
819622.533804693
 10
585981.482352348
 20
819607.134384213
 10
585973.759039222
 20
819601.903941197
 10
585949.811589956
 20
819585.527534277
 10
585933.681104105
 20
819574.273726379
 10
585910.150654087
 20
819557.891390554
 10
585902.750168272
 20
819552.743958447
 10
585889.64228604
 20
819543.677628171
 10
585883.939410649
 20
819539.750094256
 10
585866.795994734
 20
819528.026725367
 10
585855.286405119
 20
819520.278912945
 10
585839.505361948
 20
819509.343394247
 10
585835.164582229
 20
819506.302288307
 10
585827.678155521
 20
819500.965550018
 10
585824.521721921
 20
819498.6866415
 10
585818.243090564
 20
819494.081097766
 10
585815.123916676
 20
819491.758497439
 10
585805.804552954
 20
819484.762562415
 10
585799.642456876
 20
819480.061164966
 10
585789.210492798
 20
819472.188710077
 10
585784.944759078
 20
819468.993969922
 10
585777.147068188
 20
819463.273262675
 10
585773.622652142
 20
819460.731267614
 10
585767.244220451
 20
819456.248571395
 10
585764.395744365
 20
819454.291059744
 10
585758.655348171
 20
819450.412825323
 10
585755.765748629
 20
819448.492981215
 10
585748.518276488
 20
819443.725578509
 10
585744.417457416
 20
819441.068924716
 10
585744.43082407
 20
819441.07766382
  0
LWPOLYLINE
  5
20009
100
AcDbEntity
  8
0
100
AcDbPolyline
 70
0
 90
24
 10
587027.577474329
 20
820310.363493245
 10
587026.8573974
 20
820309.915103642
 10
587026.138140677
 20
820309.4656134
 10
587019.980700315
 20
820305.604376364
 10
587014.585172784
 20
820302.133519323
 10
586998.484785821
 20
820291.614326821
 10
586987.866006471
 20
820284.459504136
 10
586972.742425964
 20
820274.346756757
 10
586968.240169711
 20
820271.346874124
 10
586959.212413015
 20
820265.387974857
 10
586954.687176216
 20
820262.425932638
 10
586941.081170189
 20
820253.585675359
 10
586931.970103839
 20
820247.753330965
 10
586904.546010546
 20
820230.388913865
 10
586886.141733832
 20
820218.990807242
 10
586849.254134128
 20
820196.26993311
 10
586830.772614765
 20
820184.944416195
 10
586804.29115147
 20
820168.494062972
 10
586796.244556092
 20
820163.464260105
 10
586780.192177194
 20
820153.341944156
 10
586772.185136798
 20
820148.25344457
 10
586757.44486676
 20
820138.843708444
 10
586750.708097348
 20
820134.526828057
 10
586743.975950986
 20
820130.206525373
  0
LWPOLYLINE
  5
2000A
100
AcDbEntity
  8
0
100
AcDbPolyline
 70
0
 90
33
 10
585357.478023196
 20
819149.943458415
 10
585357.651476393
 20
819149.928758296
 10
585357.82431277
 20
819149.908029229
 10
585357.996322825
 20
819149.881296337
 10
585358.167298063
 20
819149.848592024
 10
585358.337031263
 20
819149.80995593
 10
585358.505316686
 20
819149.765434885
 10
585358.671950354
 20
819149.715082853
 10
585358.836730289
 20
819149.658960863
 10
585358.99945678
 20
819149.597136942
 10
585359.159932573
 20
819149.529686024
 10
585359.317963161
 20
819149.456689866
 10
585359.473356995
 20
819149.378236945
 10
585359.625925739
 20
819149.294422353
 10
585359.775484448
 20
819149.205347682
 10
585359.921851855
 20
819149.111120895
 10
585360.06485056
 20
819149.011856204
 10
585360.20430721
 20
819148.907673927
 10
585360.340052797
 20
819148.79870034
 10
585360.471922772
 20
819148.68506753
 10
585360.599757302
 20
819148.566913228
 10
585360.723401442
 20
819148.444380649
 10
585360.842705318
 20
819148.31761831
 10
585360.957524339
 20
819148.186779859
 10
585361.067719317
 20
819148.052023884
 10
585361.173156687
 20
819147.91351372
 10
585361.273708674
 20
819147.771417252
 10
585361.369253371
 20
819147.625906715
 10
585361.459674976
 20
819147.477158477
 10
585364.085661818
 20
819142.982835314
 10
585377.680776289
 20
819120.074348207
 10
585395.24832026
 20
819128.104537309
 10
585402.086281501
 20
819131.982917817
  0
LWPOLYLINE
  5
2000B
100
AcDbEntity
  8
0
100
AcDbPolyline
 70
0
 90
24
 10
585473.033261662
 20
819221.906720562
 10
585473.196403616
 20
819221.87248377
 10
585473.358313634
 20
819221.832827748
 10
585473.518811753
 20
819221.787796575
 10
585473.677719596
 20
819221.737440302
 10
585473.834860519
 20
819221.6818149
 10
585473.990059858
 20
819221.620982197
 10
585474.143145127
 20
819221.555009808
 10
585474.293946157
 20
819221.483971061
 10
585474.442295334
 20
819221.407944916
 10
585474.588027784
 20
819221.327015876
 10
585474.730981508
 20
819221.241273892
 10
585474.870997614
 20
819221.150814269
 10
585475.007920484
 20
819221.05573755
 10
585475.141597921
 20
819220.956149414
 10
585475.271881351
 20
819220.852160553
 10
585475.398625953
 20
819220.743886549
 10
585475.521690852
 20
819220.631447749
 10
585475.640939277
 20
819220.51496913
 10
585475.756238671
 20
819220.394580156
 10
585475.867460874
 20
819220.27041464
 10
585489.239659203
 20
819204.831762931
 10
585503.610757364
 20
819190.27544581
 10
585512.935567824
 20
819180.292568324
  0
LWPOLYLINE
  5
2000C
100
AcDbEntity
  8
0
100
AcDbPolyline
 70
0
 90
29
 10
585738.939903776
 20
819426.830103594
 10
585739.112448976
 20
819426.814498052
 10
585739.284349964
 20
819426.792924102
 10
585739.455400323
 20
819426.765407645
 10
585739.625394708
 20
819426.731981718
 10
585739.794129004
 20
819426.692686455
 10
585739.961400647
 20
819426.647569032
 10
585740.127008785
 20
819426.596683618
 10
585740.290754604
 20
819426.540091306
 10
585740.452441511
 20
819426.477860044
 10
585740.611875356
 20
819426.410064547
 10
585740.768864745
 20
819426.336786211
 10
585740.923221189
 20
819426.258113015
 10
585741.07475936
 20
819426.174139414
 10
585741.223297315
 20
819426.08496623
 10
585741.368656735
 20
819425.990700524
 10
585741.510663082
 20
819425.891455475
 10
585741.64914586
 20
819425.787350237
 10
585741.783938824
 20
819425.6785098
 10
585741.914880119
 20
819425.565064838
 10
585742.041812543
 20
819425.447151559
 10
585742.164583701
 20
819425.324911527
 10
585742.283046191
 20
819425.198491509
 10
585742.397057791
 20
819425.068043284
 10
585742.506481601
 20
819424.933723471
 10
585742.611186249
 20
819424.795693337
 10
585757.085157141
 20
819405.012231953
 10
585775.382395189
 20
819379.445668405
 10
585784.579234384
 20
819366.463696166
  0
LWPOLYLINE
  5
2000D
100
AcDbEntity
  8
0
100
AcDbPolyline
 70
0
 90
40
 10
585731.564033519
 20
819432.722605337
 10
585731.654648003
 20
819432.869273515
 10
585731.740152177
 20
819433.01897847
 10
585731.820444411
 20
819433.171542217
 10
585731.895429219
 20
819433.326783374
 10
585731.965017461
 20
819433.484517372
 10
585732.02912641
 20
819433.644556684
 10
585732.087679842
 20
819433.806711036
 10
585732.140608147
 20
819433.970787645
 10
585732.187848393
 20
819434.136591439
 10
585732.229344411
 20
819434.303925293
 10
585732.265046867
 20
819434.472590264
 10
585732.294913331
 20
819434.642385827
 10
585732.31890828
 20
819434.81311011
 10
585732.337003189
 20
819434.98456014
 10
585732.349176551
 20
819435.15653208
 10
585732.355413879
 20
819435.32882147
 10
585732.355707773
 20
819435.501223478
 10
585732.350057865
 20
819435.673533132
 10
585732.338470891
 20
819435.845545575
 10
585732.32096063
 20
819436.017056301
 10
585732.297547878
 20
819436.1878614
 10
585732.268260487
 20
819436.357757801
 10
585732.233133262
 20
819436.526543514
 10
585732.19220799
 20
819436.694017871
 10
585732.145533306
 20
819436.85998176
 10
585732.09316471
 20
819437.024237866
 10
585732.035164457
 20
819437.186590906
 10
585731.971601509
 20
819437.346847858
 10
585731.902551444
 20
819437.504818191
 10
585731.828096334
 20
819437.660314094
 10
585731.748324727
 20
819437.8131507
 10
585731.66333144
 20
819437.963146298
 10
585731.573217527
 20
819438.110122561
 10
585731.478090132
 20
819438.253904746
 10
585731.378062343
 20
819438.394321913
 10
585713.474867136
 20
819462.631142201
 10
585696.253696292
 20
819486.866302393
 10
585687.73321998
 20
819498.289533814
 10
585674.99928617
 20
819515.094171148
  0
LWPOLYLINE
  5
2000E
100
AcDbEntity
  8
0
100
AcDbPolyline
 70
0
 90
5
 10
586743.975950986
 20
820130.206525373
 10
586735.653574427
 20
820138.988011993
 10
586727.582479574
 20
820149.506326035
 10
586710.269239125
 20
820173.984120626
 10
586703.228869785
 20
820184.527437754
  0
LWPOLYLINE
  5
2000F
100
AcDbEntity
  8
0
100
AcDbPolyline
 70
0
 90
56
 10
586879.466030696
 20
820204.355934155
 10
586879.661563357
 20
820204.376294088
 10
586879.919771438
 20
820204.275561791
 10
586880.002922682
 20
820204.240264832
 10
586880.085441704
 20
820204.203532873
 10
586880.16730341
 20
820204.165377083
 10
586880.248482905
 20
820204.125809065
 10
586880.328955514
 20
820204.084840848
 10
586880.40869677
 20
820204.042484893
 10
586880.487682414
 20
820203.998754076
 10
586880.56588844
 20
820203.953661695
 10
586880.643291056
 20
820203.907221461
 10
586880.719866751
 20
820203.859447495
 10
586880.795592211
 20
820203.810354322
 10
586880.870444425
 20
820203.759956874
 10
586880.944400627
 20
820203.70827047
 10
586881.017438346
 20
820203.655310831
 10
586881.08953535
 20
820203.601094056
 10
586881.160669742
 20
820203.545636632
 10
586881.230819866
 20
820203.488955422
 10
586881.2999644
 20
820203.431067663
 10
586881.368082338
 20
820203.371990953
 10
586881.435152938
 20
820203.311743258
 10
586881.501155834
 20
820203.250342895
 10
586881.566070938
 20
820203.187808536
 10
586881.629878516
 20
820203.124159195
 10
586881.692559167
 20
820203.059414225
 10
586881.754093831
 20
820202.993593315
 10
586881.814463798
 20
820202.926716476
 10
586881.873650724
 20
820202.858804043
 10
586881.931636592
 20
820202.78987667
 10
586881.988403778
 20
820202.719955312
 10
586882.043935013
 20
820202.64906123
 10
586882.098213433
 20
820202.577215982
 10
586882.151222518
 20
820202.504441412
 10
586882.20294615
 20
820202.43075965
 10
586882.253368601
 20
820202.3561931
 10
586882.302474551
 20
820202.280764433
 10
586882.350249053
 20
820202.204496589
 10
586882.396677585
 20
820202.127412754
 10
586882.441746036
 20
820202.049536369
 10
586882.4854407
 20
820201.970891114
 10
586882.527748292
 20
820201.8915009
 10
586882.568655933
 20
820201.811389869
 10
586882.608151201
 20
820201.730582378
 10
586882.646222086
 20
820201.649103002
 10
586882.682857001
 20
820201.566976513
 10
586882.718044822
 20
820201.484227885
 10
586882.751774834
 20
820201.400882275
 10
586882.78403678
 20
820201.316965031
 10
586882.814820873
 20
820201.232501667
 10
586882.844117719
 20
820201.147517863
 10
586884.060145268
 20
820196.549994482
 10
586885.544469187
 20
820192.019608856
 10
586887.568579895
 20
820185.823629129
 10
586889.393036362
 20
820178.694025281
  0
LWPOLYLINE
  5
20010
100
AcDbEntity
  8
0
100
AcDbPolyline
 70
0
 90
10
 10
587038.279549614
 20
820316.901958305
 10
587037.82709423
 20
820317.429970512
 10
587035.671031613
 20
820323.548151165
 10
587032.857438121
 20
820331.738127368
 10
587027.723443697
 20
820350.927620703
 10
587021.510109691
 20
820373.314956027
 10
587016.173627291
 20
820393.170691618
 10
587013.467214106
 20
820405.69829848
 10
587010.635127405
 20
820413.426030931
 10
586996.26815964
 20
820460.69684798
  0
LWPOLYLINE
  5
20011
100
AcDbEntity
  8
0
100
AcDbPolyline
 70
0
 90
10
 10
587107.813406451
 20
820354.573248005
 10
587097.552984273
 20
820349.295908731
 10
587087.276109727
 20
820344.010236008
 10
587070.42393286
 20
820335.077395979
 10
587063.815756648
 20
820331.506433008
 10
587052.097700103
 20
820324.971918674
 10
587046.970909634
 20
820322.042670119
 10
587040.678185128
 20
820318.332465383
 10
587039.477669765
 20
820317.619113275
 10
587038.279549614
 20
820316.901958305
  0
LWPOLYLINE
  5
20012
100
AcDbEntity
  8
0
100
AcDbPolyline
 70
0
 90
22
 10
587111.913151874
 20
820346.602352689
 10
587101.596645536
 20
820341.296167116
 10
587091.296772445
 20
820335.998405184
 10
587074.453098103
 20
820327.067146461
 10
587067.856961813
 20
820323.500494155
 10
587056.153417284
 20
820316.967829885
 10
587051.024078058
 20
820314.032847464
 10
587039.931569545
 20
820307.479280871
 10
587033.981479864
 20
820303.824002134
 10
587022.150161269
 20
820296.356041403
 10
587016.270785738
 20
820292.545163842
 10
586998.684123253
 20
820280.978054805
 10
586987.028473424
 20
820273.087152775
 10
586969.957234625
 20
820261.730332454
 10
586964.609303445
 20
820258.206067232
 10
586953.889796971
 20
820251.208660722
 10
586948.516996723
 20
820247.733233819
 10
586932.365736175
 20
820237.366268606
 10
586921.554418603
 20
820230.534043112
 10
586902.422791131
 20
820218.564171977
 10
586894.113233838
 20
820213.405993697
 10
586885.795828548
 20
820208.264714628
  0
LWPOLYLINE
  5
20013
100
AcDbEntity
  8
0
100
AcDbPolyline
 70
0
 90
63
 10
586940.128661919
 20
820383.636250003
 10
586999.873184871
 20
820400.195732453
 10
587000.041922792
 20
820400.239349792
 10
587000.212078342
 20
820400.27705986
 10
587000.383444774
 20
820400.308816837
 10
587000.555813889
 20
820400.334582138
 10
587000.728976245
 20
820400.354324459
 10
587000.902721454
 20
820400.368019813
 10
587001.076838415
 20
820400.375651561
 10
587001.251115576
 20
820400.377210429
 10
587001.425341202
 20
820400.372694524
 10
587001.599303594
 20
820400.362109331
 10
587001.772791401
 20
820400.345467713
 10
587001.94559382
 20
820400.32278989
 10
587002.117500904
 20
820400.294103415
 10
587002.288303787
 20
820400.25944314
 10
587002.457794952
 20
820400.218851178
 10
587002.625768457
 20
820400.172376849
 10
587002.792020205
 20
820400.120076621
 10
587002.956348221
 20
820400.062014035
 10
587003.118552838
 20
820399.998259639
 10
587003.278436976
 20
820399.928890895
 10
587003.435806383
 20
820399.853992084
 10
587003.590469838
 20
820399.77365421
 10
587003.742239451
 20
820399.687974881
 10
587003.890930793
 20
820399.5970582
 10
587004.036363236
 20
820399.501014628
 10
587004.178360054
 20
820399.399960861
 10
587004.316748728
 20
820399.294019677
 10
587004.451361124
 20
820399.183319793
 10
587004.582033673
 20
820399.067995712
 10
587004.708607627
 20
820398.948187551
 10
587004.830929185
 20
820398.824040877
 10
587004.948849731
 20
820398.695706529
 10
587005.062226
 20
820398.56334043
 10
587005.170920215
 20
820398.42710341
 10
587005.274800345
 20
820398.287160991
 10
587005.373740153
 20
820398.143683206
 10
587005.467619436
 20
820397.99684438
 10
587005.556324126
 20
820397.846822921
 10
587005.639746449
 20
820397.693801106
 10
587005.717785053
 20
820397.537964855
 10
587005.790345111
 20
820397.379503511
 10
587005.857338477
 20
820397.2186096
 10
587005.918683734
 20
820397.055478613
 10
587005.974306371
 20
820396.89030875
 10
587010.184821047
 20
820383.627406397
 10
587013.564637935
 20
820369.76775405
 10
587018.970831274
 20
820348.445571511
 10
587025.18701021
 20
820324.458343899
 10
587026.262206227
 20
820323.593650628
 10
587026.494559021
 20
820322.870009231
 10
587026.715022085
 20
820322.142705679
 10
587026.923536984
 20
820321.411932748
 10
587027.120048457
 20
820320.677884125
 10
587027.304504411
 20
820319.940754374
 10
587027.47685595
 20
820319.200738871
 10
587027.6370574
 20
820318.458033758
 10
587027.785066298
 20
820317.71283589
 10
587027.920843411
 20
820316.965342782
 10
587028.463342046
 20
820313.116524832
 10
587028.099284099
 20
820311.494003174
 10
587027.577474329
 20
820310.363493245
  0
LWPOLYLINE
  5
20014
100
AcDbEntity
  8
0
100
AcDbPolyline
 70
0
 90
45
 10
586973.612831513
 20
820421.692953207
 10
586976.623024456
 20
820407.28256971
 10
586976.655606094
 20
820407.111816779
 10
586976.682232412
 20
820406.940034462
 10
586976.702871244
 20
820406.767430391
 10
586976.71749762
 20
820406.594213201
 10
586976.726093879
 20
820406.420592261
 10
586976.728649625
 20
820406.246777434
 10
586976.725161756
 20
820406.072978813
 10
586976.715634503
 20
820405.899406471
 10
586976.70007939
 20
820405.726270211
 10
586976.678515193
 20
820405.553779308
 10
586976.650968004
 20
820405.382142255
 10
586976.617471093
 20
820405.211566514
 10
586976.578064971
 20
820405.042258264
 10
586976.532797259
 20
820404.874422152
 10
586976.481722674
 20
820404.708261046
 10
586976.424902962
 20
820404.543975791
 10
586976.362406786
 20
820404.381764958
 10
586976.294309695
 20
820404.22182462
 10
586976.22069399
 20
820404.064348097
 10
586976.141648671
 20
820403.909525739
 10
586976.057269263
 20
820403.757544681
 10
586975.967657765
 20
820403.608588626
 10
586975.872922496
 20
820403.462837622
 10
586975.77317797
 20
820403.320467842
 10
586975.668544737
 20
820403.181651372
 10
586975.55914927
 20
820403.046556
 10
586975.445123816
 20
820402.915345024
 10
586975.326606181
 20
820402.788177039
 10
586975.203739622
 20
820402.665205757
 10
586975.076672662
 20
820402.546579816
 10
586974.945558888
 20
820402.432442602
 10
586974.810556774
 20
820402.322932076
 10
586974.671829504
 20
820402.218180606
 10
586974.529544755
 20
820402.118314807
 10
586974.38387453
 20
820402.023455392
 10
586974.234994877
 20
820401.933717017
 10
586974.083085766
 20
820401.84920815
 10
586973.92833081
 20
820401.770030944
 10
586973.770917064
 20
820401.696281097
 10
586973.611034803
 20
820401.628047756
 10
586973.448877279
 20
820401.565413394
 10
586973.284640496
 20
820401.508453722
 10
586938.238401346
 20
820390.032425827
  0
LWPOLYLINE
  5
20015
100
AcDbEntity
  8
0
100
AcDbPolyline
 70
0
 90
97
 10
586985.951561157
 20
820460.69684798
 10
587001.782468198
 20
820413.793390824
 10
587001.834920174
 20
820413.6286394
 10
587001.88164454
 20
820413.462172964
 10
587001.922585454
 20
820413.294190575
 10
587001.957693932
 20
820413.124893098
 10
587001.986928012
 20
820412.954482976
 10
587002.010252732
 20
820412.783163978
 10
587002.027640193
 20
820412.611140963
 10
587002.0390696
 20
820412.438619632
 10
587002.044527303
 20
820412.265806279
 10
587002.044006775
 20
820412.092907552
 10
587002.037508618
 20
820411.920130193
 10
587002.025040623
 20
820411.747680809
 10
587002.006617683
 20
820411.575765607
 10
587001.982261838
 20
820411.404590159
 10
587001.952002211
 20
820411.23435915
 10
587001.915874983
 20
820411.065276138
 10
587001.873923358
 20
820410.897543308
 10
587001.826197496
 20
820410.731361229
 10
587001.772754475
 20
820410.566928617
 10
587001.713658185
 20
820410.404442096
 10
587001.648979295
 20
820410.244095961
 10
587001.578795159
 20
820410.086081949
 10
587001.503189689
 20
820409.930589009
 10
587001.422253293
 20
820409.777803076
 10
587001.336082762
 20
820409.627906844
 10
587001.244781118
 20
820409.481079557
 10
587001.148457557
 20
820409.337496786
 10
587001.047227246
 20
820409.197330222
 10
587000.941211237
 20
820409.060747472
 10
587000.830536307
 20
820408.927911858
 10
587000.71533478
 20
820408.798982222
 10
587000.595744436
 20
820408.674112731
 10
587000.471908262
 20
820408.553452704
 10
587000.343974326
 20
820408.43714642
 10
587000.21209564
 20
820408.325332954
 10
587000.076429865
 20
820408.218146011
 10
586999.937139258
 20
820408.115713762
 10
586999.794390354
 20
820408.018158689
 10
586999.648353858
 20
820407.925597451
 10
586999.499204394
 20
820407.838140726
 10
586999.347120306
 20
820407.755893092
 10
586999.192283469
 20
820407.678952899
 10
586999.034879011
 20
820407.607412152
 10
586998.875095165
 20
820407.541356393
 10
586998.713122987
 20
820407.480864613
 10
586998.549156163
 20
820407.426009145
 10
586998.383390762
 20
820407.376855583
 10
586998.216024996
 20
820407.333462703
 10
586990.526772238
 20
820405.481143521
 10
586990.356930021
 20
820405.443343145
 10
586990.185875402
 20
820405.411475196
 10
586990.013815534
 20
820405.38557827
 10
586989.840958786
 20
820405.365683727
 10
586989.667514479
 20
820405.351815661
 10
586989.493692672
 20
820405.343990864
 10
586989.319703852
 20
820405.342218813
 10
586989.145758723
 20
820405.346501655
 10
586988.972067947
 20
820405.356834203
 10
586988.79884185
 20
820405.373203943
 10
586988.626290214
 20
820405.395591051
 10
586988.454622011
 20
820405.423968419
 10
586988.284045118
 20
820405.458301678
 10
586988.114766114
 20
820405.498549252
 10
586987.946989994
 20
820405.5446624
 10
586987.780919934
 20
820405.596585279
 10
586987.616757059
 20
820405.65425501
 10
586987.454700153
 20
820405.717601753
 10
586987.29494549
 20
820405.786548798
 10
586987.137686514
 20
820405.861012645
 10
586986.983113683
 20
820405.940903122
 10
586986.831414177
 20
820406.026123476
 10
586986.682771711
 20
820406.116570508
 10
586986.537366289
 20
820406.212134684
 10
586986.395373995
 20
820406.312700276
 10
586986.256966788
 20
820406.418145498
 10
586986.122312287
 20
820406.528342652
 10
586985.991573545
 20
820406.643158293
 10
586985.864908893
 20
820406.762453374
 10
586985.742471742
 20
820406.886083429
 10
586985.624410334
 20
820407.013898741
 10
586985.510867661
 20
820407.145744524
 10
586985.40198122
 20
820407.281461111
 10
586985.297882881
 20
820407.420884148
 10
586985.198698689
 20
820407.563844794
 10
586985.10454878
 20
820407.710169921
 10
586985.01554715
 20
820407.859682327
 10
586984.9318016
 20
820408.012200952
 10
586984.853413526
 20
820408.167541095
 10
586984.780477872
 20
820408.325514636
 10
586984.71308297
 20
820408.485930267
 10
586984.65131042
 20
820408.648593725
 10
586984.595235034
 20
820408.813308023
 10
586984.544924715
 20
820408.97987369
 10
586984.500440399
 20
820409.148089011
 10
586979.199966782
 20
820430.702218568
  0
LWPOLYLINE
  5
20016
100
AcDbEntity
  8
0
100
AcDbPolyline
 70
0
 90
89
 10
586893.482691008
 20
820180.767807535
 10
586891.188271968
 20
820188.029901065
 10
586889.028060733
 20
820195.292231743
 10
586886.535289525
 20
820200.887420084
 10
586885.659038662
 20
820203.085712514
 10
586885.618735303
 20
820203.129550084
 10
586885.57920713
 20
820203.174078791
 10
586885.540466155
 20
820203.219285105
 10
586885.502524158
 20
820203.265155297
 10
586885.465392647
 20
820203.311675432
 10
586885.429082908
 20
820203.358831384
 10
586885.393605968
 20
820203.406608824
 10
586885.358972601
 20
820203.454993244
 10
586885.32519334
 20
820203.503969943
 10
586885.292278431
 20
820203.553524048
 10
586885.260237877
 20
820203.603640504
 10
586885.229081405
 20
820203.65430409
 10
586885.198818489
 20
820203.705499416
 10
586885.169458319
 20
820203.75721093
 10
586885.141009805
 20
820203.809422928
 10
586885.113481595
 20
820203.862119547
 10
586885.086882047
 20
820203.915284783
 10
586885.061219248
 20
820203.968902485
 10
586885.036500986
 20
820204.022956368
 10
586885.012734783
 20
820204.077430012
 10
586884.989927829
 20
820204.132306872
 10
586884.968087086
 20
820204.187570277
 10
586884.947219161
 20
820204.243203442
 10
586884.927330407
 20
820204.299189469
 10
586884.908426858
 20
820204.35551135
 10
586884.890514262
 20
820204.412151978
 10
586884.873598053
 20
820204.469094151
 10
586884.857683379
 20
820204.526320569
 10
586884.842775064
 20
820204.583813849
 10
586884.828877636
 20
820204.641556532
 10
586884.815995328
 20
820204.699531074
 10
586884.804132045
 20
820204.757719869
 10
586884.793291394
 20
820204.816105239
 10
586884.783476664
 20
820204.874669451
 10
586884.774690841
 20
820204.933394715
 10
586884.766936586
 20
820204.992263193
 10
586884.76021627
 20
820205.051257004
 10
586884.754531911
 20
820205.110358229
 10
586884.749885249
 20
820205.169548916
 10
586884.746277698
 20
820205.228811085
 10
586884.74371035
 20
820205.288126737
 10
586884.742183986
 20
820205.347477852
 10
586884.741699069
 20
820205.406846402
 10
586884.742255741
 20
820205.466214357
 10
586884.743853845
 20
820205.525563682
 10
586884.746492886
 20
820205.584876348
 10
586884.750172066
 20
820205.64413434
 10
586884.75489026
 20
820205.70331966
 10
586884.760646042
 20
820205.762414327
 10
586884.767437667
 20
820205.821400395
 10
586884.775263072
 20
820205.880259942
 10
586884.784119868
 20
820205.938975094
 10
586884.794005374
 20
820205.997528013
 10
586884.804916588
 20
820206.055900916
 10
586884.816850196
 20
820206.11407607
 10
586884.829802565
 20
820206.172035804
 10
586884.843769765
 20
820206.229762515
 10
586884.858747554
 20
820206.287238667
 10
586884.874731387
 20
820206.344446802
 10
586884.891716417
 20
820206.401369541
 10
586884.909697461
 20
820206.457989596
 10
586884.928669068
 20
820206.514289769
 10
586884.948625473
 20
820206.570252957
 10
586884.969560628
 20
820206.625862161
 10
586884.991468158
 20
820206.681100492
 10
586885.01434141
 20
820206.735951168
 10
586885.038173444
 20
820206.790397529
 10
586885.062957022
 20
820206.844423039
 10
586885.088684611
 20
820206.898011287
 10
586885.115348391
 20
820206.951145992
 10
586885.155428018
 20
820207.054212639
 10
586885.197283441
 20
820207.156580359
 10
586885.240902317
 20
820207.25821896
 10
586885.286271788
 20
820207.359098462
 10
586885.333378458
 20
820207.459189114
 10
586885.382208445
 20
820207.558461394
 10
586885.432747338
 20
820207.656886021
 10
586885.484980245
 20
820207.754433966
 10
586885.538891742
 20
820207.85107646
 10
586885.594465948
 20
820207.946784996
 10
586885.651686454
 20
820208.041531346
 10
586885.710536384
 20
820208.135287564
 10
586885.7709984
 20
820208.228026
 10
586885.795828548
 20
820208.264714628
  0
LWPOLYLINE
  5
20017
100
AcDbEntity
  8
0
100
AcDbPolyline
 70
0
 90
27
 10
585792.53525126
 20
819371.178515963
 10
585751.552354306
 20
819428.018483722
 10
585751.455466178
 20
819428.157782606
 10
585751.363360425
 20
819428.300288811
 10
585751.276143116
 20
819428.445838217
 10
585751.193914703
 20
819428.594263201
 10
585751.116769882
 20
819428.745392828
 10
585751.044797488
 20
819428.89905305
 10
585750.978080424
 20
819429.055066899
 10
585750.916695508
 20
819429.213254705
 10
585750.860713459
 20
819429.373434285
 10
585750.810198729
 20
819429.535421169
 10
585750.765209507
 20
819429.699028802
 10
585750.725797587
 20
819429.864068764
 10
585750.69200837
 20
819430.030350988
 10
585750.663880775
 20
819430.197683969
 10
585750.641447196
 20
819430.365874999
 10
585750.624733449
 20
819430.534730378
 10
585750.613758806
 20
819430.704055644
 10
585750.608535885
 20
819430.87365579
 10
585750.609070721
 20
819431.043335495
 10
585750.615362695
 20
819431.212899346
 10
585750.627404545
 20
819431.382152063
 10
585750.645182408
 20
819431.550898724
 10
585750.668675822
 20
819431.718944992
 10
585750.697857722
 20
819431.886097332
 10
585751.263190579
 20
819434.828663816
  0
LWPOLYLINE
  5
20018
100
AcDbEntity
  8
0
100
AcDbPolyline
 70
0
 90
37
 10
585518.310020323
 20
819186.144540417
 10
585495.63196918
 20
819208.995332095
 10
585483.435149123
 20
819223.96990039
 10
585483.329779316
 20
819224.103867451
 10
585483.229036756
 20
819224.241348012
 10
585483.133038496
 20
819224.38218232
 10
585483.041896077
 20
819224.526206729
 10
585482.95571543
 20
819224.673253879
 10
585482.874596684
 20
819224.823152903
 10
585482.798634098
 20
819224.975729618
 10
585482.727915934
 20
819225.130806731
 10
585482.662524376
 20
819225.288204042
 10
585482.602535418
 20
819225.447738655
 10
585482.548018744
 20
819225.609225192
 10
585482.499037721
 20
819225.772476005
 10
585482.455649252
 20
819225.937301397
 10
585482.417903763
 20
819226.103509841
 10
585482.385845116
 20
819226.270908204
 10
585482.359510547
 20
819226.439301968
 10
585482.338930678
 20
819226.60849546
 10
585482.324129416
 20
819226.778292078
 10
585482.315123945
 20
819226.948494519
 10
585482.311924752
 20
819227.118905004
 10
585482.314535549
 20
819227.289325522
 10
585482.322953283
 20
819227.459558041
 10
585482.337168199
 20
819227.629404752
 10
585482.357163755
 20
819227.798668294
 10
585482.382916744
 20
819227.96715198
 10
585482.414397216
 20
819228.134660036
 10
585482.4515686
 20
819228.300997816
 10
585482.494387698
 20
819228.465972035
 10
585482.542804774
 20
819228.629390996
 10
585482.596763541
 20
819228.791064803
 10
585482.656201313
 20
819228.950805592
 10
585482.721049027
 20
819229.108427747
 10
585482.791231317
 20
819229.263748107
 10
585482.866666643
 20
819229.416586194
  0
LWPOLYLINE
  5
20019
100
AcDbEntity
  8
0
100
AcDbPolyline
 70
0
 90
32
 10
585400.060361944
 20
819139.312347044
 10
585381.153279717
 20
819129.813232856
 10
585368.729284136
 20
819151.408208562
 10
585368.645937653
 20
819151.559033312
 10
585368.567837987
 20
819151.712640542
 10
585368.495077883
 20
819151.868847798
 10
585368.427743757
 20
819152.027469539
 10
585368.365915605
 20
819152.188317355
 10
585368.309666868
 20
819152.351200194
 10
585368.259064349
 20
819152.515924585
 10
585368.214168143
 20
819152.682294869
 10
585368.175031597
 20
819152.850113434
 10
585368.141701194
 20
819153.019180947
 10
585368.114216513
 20
819153.189296592
 10
585368.0926102
 20
819153.360258305
 10
585368.076907926
 20
819153.531863022
 10
585368.06712834
 20
819153.703906911
 10
585368.06328307
 20
819153.876185621
 10
585368.065376654
 20
819154.04849452
 10
585368.073406633
 20
819154.220628944
 10
585368.087363452
 20
819154.39238443
 10
585368.107230551
 20
819154.563556971
 10
585368.132984311
 20
819154.733943249
 10
585368.164594148
 20
819154.903340883
 10
585368.202022529
 20
819155.07154866
 10
585368.245224982
 20
819155.238366789
 10
585368.294150203
 20
819155.403597121
 10
585368.348740075
 20
819155.567043402
 10
585368.408929743
 20
819155.728511488
 10
585368.474647742
 20
819155.887809591
 10
585368.545815991
 20
819156.044748497
 10
585368.622349964
 20
819156.199141798
  0
LWPOLYLINE
  5
2001A
100
AcDbEntity
  8
0
100
AcDbPolyline
 70
0
 90
65
 10
585168.927833337
 20
818978.255117113
 10
585143.155330326
 20
818980.610242521
 10
585132.416441329
 20
818981.791538341
 10
585131.742572921
 20
818981.806462922
 10
585131.069051578
 20
818981.832614594
 10
585130.396066851
 20
818981.869986
 10
585129.723808096
 20
818981.918566621
 10
585129.052464487
 20
818981.978342787
 10
585128.382224926
 20
818982.049297678
 10
585127.713278038
 20
818982.131411327
 10
585127.045812052
 20
818982.224660628
 10
585126.380014772
 20
818982.329019342
 10
585125.716073569
 20
818982.444458102
 10
585125.054175267
 20
818982.570944423
 10
585124.394506118
 20
818982.708442714
 10
585123.737251741
 20
818982.856914284
 10
585123.082597088
 20
818983.016317353
 10
585122.430726392
 20
818983.186607066
 10
585121.781823066
 20
818983.367735504
 10
585121.136069705
 20
818983.559651699
 10
585120.493648039
 20
818983.762301645
 10
585119.854738818
 20
818983.975628322
 10
585119.21952185
 20
818984.199571696
 10
585118.588175867
 20
818984.434068752
 10
585118.376953118
 20
818984.515843895
 10
585118.167170342
 20
818984.601198577
 10
585117.958888992
 20
818984.690107793
 10
585117.752170092
 20
818984.782545493
 10
585117.547074208
 20
818984.878484595
 10
585117.343661421
 20
818984.97789699
 10
585117.141991335
 20
818985.080753556
 10
585116.942123026
 20
818985.187024154
 10
585116.74411507
 20
818985.29667765
 10
585116.548025451
 20
818985.409681918
 10
585116.353911653
 20
818985.526003849
 10
585116.161830513
 20
818985.645609366
 10
585115.971838331
 20
818985.768463425
 10
585115.783990762
 20
818985.894530032
 10
585115.598342841
 20
818986.023772253
 10
585115.414948964
 20
818986.156152221
 10
585115.233862856
 20
818986.291631154
 10
585115.055137563
 20
818986.430169356
 10
585114.878825475
 20
818986.571726243
 10
585114.704978214
 20
818986.716260339
 10
585114.533646745
 20
818986.863729297
 10
585114.364881232
 20
818987.014089914
 10
585114.198731154
 20
818987.167298136
 10
585114.035245165
 20
818987.323309077
 10
585113.87447118
 20
818987.48207703
 10
585113.716456283
 20
818987.643555476
 10
585113.561246773
 20
818987.807697109
 10
585113.408888149
 20
818987.974453837
 10
585113.259425015
 20
818988.143776802
 10
585113.112901175
 20
818988.315616401
 10
585112.969359565
 20
818988.489922283
 10
585112.828842225
 20
818988.666643383
 10
585112.691390332
 20
818988.845727924
 10
585112.557044162
 20
818989.027123439
 10
585112.425843059
 20
818989.210776783
 10
585112.297825472
 20
818989.396634147
 10
585112.173028915
 20
818989.584641083
 10
585112.051489928
 20
818989.774742505
 10
585111.933244156
 20
818989.966882719
 10
585111.818326205
 20
818990.161005432
 10
585111.756116127
 20
818990.270332895
  0
LWPOLYLINE
  5
2001B
100
AcDbEntity
  8
0
100
AcDbPolyline
 70
0
 90
38
 10
585683.54405327
 20
819517.477992062
 10
585701.844010006
 20
819490.31156924
 10
585715.566425113
 20
819471.403323702
 10
585724.984369217
 20
819458.087225289
 10
585739.211532183
 20
819442.472454357
 10
585739.330209738
 20
819442.346643301
 10
585739.453167533
 20
819442.225012026
 10
585739.580258428
 20
819442.107706071
 10
585739.711330382
 20
819441.994865791
 10
585739.846226551
 20
819441.886626199
 10
585739.984785528
 20
819441.783116808
 10
585740.126841541
 20
819441.684461468
 10
585740.272224596
 20
819441.590778219
 10
585740.42076075
 20
819441.502179156
 10
585740.572272297
 20
819441.418770288
 10
585740.72657792
 20
819441.340651415
 10
585740.883493011
 20
819441.267916006
 10
585741.042829813
 20
819441.200651091
 10
585741.204397672
 20
819441.138937154
 10
585741.368003288
 20
819441.082848035
 10
585741.533450889
 20
819441.032450845
 10
585741.700542511
 20
819440.987805885
 10
585741.869078252
 20
819440.948966575
 10
585742.038856421
 20
819440.915979384
 10
585742.209673916
 20
819440.888883783
 10
585742.381326319
 20
819440.867712193
 10
585742.553608263
 20
819440.852489944
 10
585742.726313607
 20
819440.843235252
 10
585742.899235705
 20
819440.839959187
 10
585743.072167653
 20
819440.842665672
 10
585743.24490254
 20
819440.851351469
 10
585743.417233687
 20
819440.866006183
 10
585743.588954906
 20
819440.886612279
 10
585743.759860702
 20
819440.913145104
 10
585743.92974662
 20
819440.94557291
 10
585744.098409365
 20
819440.983856897
 10
585744.265647133
 20
819441.027951257
 10
585744.431259831
 20
819441.077803232
  0
ENDSEC
  0
SECTION
  2
OBJECTS
  0
DICTIONARY
  5
C
330
0
100
AcDbDictionary
281
     1
  3
ACAD_GROUP
350
D
  3
ACAD_LAYOUT
350
1A
  3
ACAD_MLEADERSTYLE
350
43
  3
ACAD_PLOTSETTINGS
350
19
  3
ACAD_PLOTSTYLENAME
350
E
  3
ACAD_TABLESTYLE
350
42
  0
DICTIONARY
  5
D
102
{ACAD_REACTORS
330
C
102
}
330
C
100
AcDbDictionary
281
     1
  0
DICTIONARY
  5
1A
102
{ACAD_REACTORS
330
C
102
}
330
C
100
AcDbDictionary
281
     1
  3
Layout1
350
1E
  3
Model
350
22
  0
DICTIONARY
  5
43
102
{ACAD_REACTORS
330
C
102
}
330
C
100
AcDbDictionary
281
     1
  0
DICTIONARY
  5
19
102
{ACAD_REACTORS
330
C
102
}
330
C
100
AcDbDictionary
281
     1
  0
ACDBDICTIONARYWDFLT
  5
E
102
{ACAD_REACTORS
330
C
102
}
330
C
100
AcDbDictionary
281
     1
  3
Normal
350
F
100
AcDbDictionaryWithDefault
340
F
  0
DICTIONARY
  5
42
102
{ACAD_REACTORS
330
C
102
}
330
C
100
AcDbDictionary
281
     1
  0
LAYOUT
  5
1E
102
{ACAD_REACTORS
330
1A
102
}
330
1A
100
AcDbPlotSettings
  1

  2
none_device
  4

  6

 40
0.0
 41
0.0
 42
0.0
 43
0.0
 44
0.0
 45
0.0
 46
0.0
 47
0.0
 48
0.0
 49
0.0
140
0.0
141
0.0
142
1.0
143
1.0
 70
   688
 72
     0
 73
     0
 74
     5
  7

 75
    16
 76
     0
 77
     2
 78
   300
147
1.0
148
0.0
149
0.0
100
AcDbLayout
  1
Layout1
 70
     1
 71
     1
 10
0.0
 20
0.0
 11
12.0
 21
9.0
 12
0.0
 22
0.0
 32
0.0
 14
1.000000000000000E+20
 24
1.000000000000000E+20
 34
1.000000000000000E+20
 15
-1.000000000000000E+20
 25
-1.000000000000000E+20
 35
-1.000000000000000E+20
146
0.0
 13
0.0
 23
0.0
 33
0.0
 16
1.0
 26
0.0
 36
0.0
 17
0.0
 27
1.0
 37
0.0
 76
     0
330
1B
  0
LAYOUT
  5
22
102
{ACAD_REACTORS
330
1A
102
}
330
1A
100
AcDbPlotSettings
  1

  2
none_device
  4

  6

 40
0.0
 41
0.0
 42
0.0
 43
0.0
 44
0.0
 45
0.0
 46
0.0
 47
0.0
 48
0.0
 49
0.0
140
0.0
141
0.0
142
1.0
143
1.0
 70
  1712
 72
     0
 73
     0
 74
     0
  7

 75
     0
 76
     0
 77
     2
 78
   300
147
1.0
148
0.0
149
0.0
100
AcDbLayout
  1
Model
 70
     1
 71
     0
 10
0.0
 20
0.0
 11
12.0
 21
9.0
 12
0.0
 22
0.0
 32
0.0
 14
30.0
 24
49.75
 34
0.0
 15
130.5
 25
163.1318914119703
 35
0.0
146
0.0
 13
0.0
 23
0.0
 33
0.0
 16
1.0
 26
0.0
 36
0.0
 17
0.0
 27
1.0
 37
0.0
 76
     0
330
1F
331
29
  0
ACDBPLACEHOLDER
  5
F
102
{ACAD_REACTORS
330
E
102
}
330
E
  0
ENDSEC
  0
EOF
